<?xml version="1.0" encoding="iso-8859-1"?>
<!-- Generator: Adobe Illustrator 19.0.0, SVG Export Plug-In . SVG Version: 6.00 Build 0)  -->
<svg xmlns="http://www.w3.org/2000/svg" xmlns:xlink="http://www.w3.org/1999/xlink" version="1.1" id="Capa_1" x="0px" y="0px" viewBox="0 0 391.757 391.757" style="enable-background:new 0 0 391.757 391.757;" xml:space="preserve" width="512px" height="512px">
<g>
	<path d="M281.576,36.727c-3.379,0-6.121,2.742-6.121,6.121s2.742,6.121,6.121,6.121s6.121-2.742,6.121-6.121   S284.955,36.727,281.576,36.727L281.576,36.727z M284.636,361.152H107.121c-1.689,0-3.061,1.371-3.061,3.061   s1.371,3.061,3.061,3.061h177.515c1.689,0,3.061-1.371,3.061-3.061S286.326,361.152,284.636,361.152L284.636,361.152z    M195.879,281.576c-16.876,0-30.606-13.73-30.606-30.606s13.73-30.606,30.606-30.606s30.606,13.73,30.606,30.606   S212.755,281.576,195.879,281.576L195.879,281.576z M195.879,214.242c-20.286,0-36.727,16.442-36.727,36.727   s16.442,36.727,36.727,36.727s36.727-16.442,36.727-36.727S216.164,214.242,195.879,214.242L195.879,214.242z M195.879,79.576   c6.752,0,12.242,5.491,12.242,12.242c0,6.752-5.491,12.242-12.242,12.242c-6.752,0-12.242-5.491-12.242-12.242   C183.636,85.066,189.127,79.576,195.879,79.576L195.879,79.576z M195.879,110.182c10.143,0,18.364-8.221,18.364-18.364   s-8.221-18.364-18.364-18.364s-18.364,8.221-18.364,18.364S185.736,110.182,195.879,110.182L195.879,110.182z M195.879,330.545   c-43.877,0-79.576-35.699-79.576-79.576s35.699-79.576,79.576-79.576s79.576,35.699,79.576,79.576S239.756,330.545,195.879,330.545   L195.879,330.545z M195.879,159.152c-50.708,0-91.818,41.11-91.818,91.818s41.11,91.818,91.818,91.818s91.818-41.11,91.818-91.818   S246.587,159.152,195.879,159.152L195.879,159.152z M195.879,48.97c23.628,0,42.848,19.221,42.848,42.848   s-19.221,42.848-42.848,42.848s-42.848-19.221-42.848-42.848S172.251,48.97,195.879,48.97L195.879,48.97z M195.879,146.909   c30.429,0,55.091-24.662,55.091-55.091s-24.662-55.091-55.091-55.091s-55.091,24.662-55.091,55.091S165.45,146.909,195.879,146.909   L195.879,146.909z M312.182,361.152c0,10.124-8.239,18.364-18.364,18.364H97.939c-10.124,0-18.364-8.239-18.364-18.364V30.606   c0-10.124,8.239-18.364,18.364-18.364h195.879c10.124,0,18.364,8.239,18.364,18.364V361.152z M293.818,0H97.939   C81.106,0,67.333,13.773,67.333,30.606v330.545c0,16.833,13.773,30.606,30.606,30.606h195.879   c16.833,0,30.606-13.773,30.606-30.606V30.606C324.424,13.773,310.652,0,293.818,0L293.818,0z" fill="#FFFFFF"/>
</g>
<g>
</g>
<g>
</g>
<g>
</g>
<g>
</g>
<g>
</g>
<g>
</g>
<g>
</g>
<g>
</g>
<g>
</g>
<g>
</g>
<g>
</g>
<g>
</g>
<g>
</g>
<g>
</g>
<g>
</g>
</svg>
