<svg xmlns="http://www.w3.org/2000/svg" style="display: none;">
	<symbol id="github" viewBox="0 0 438.5 438.5">
		<path d="M409.1 114.6c-19.6-33.6-46.2-60.2-79.8-79.8C295.7 15.2 259.1 5.4 219.3 5.4c-39.8 0-76.5 9.8-110.1 29.4 -33.6 19.6-60.2 46.2-79.8 79.8C9.8 148.2 0 184.9 0 224.6c0 47.8 13.9 90.7 41.8 128.9 27.9 38.2 63.9 64.6 108.1 79.2 5.1 1 8.9 0.3 11.4-2 2.5-2.3 3.7-5.1 3.7-8.6 0-0.6 0-5.7-0.1-15.4 -0.1-9.7-0.1-18.2-0.1-25.4l-6.6 1.1c-4.2 0.8-9.5 1.1-15.8 1 -6.4-0.1-13-0.8-19.8-2 -6.9-1.2-13.2-4.1-19.1-8.6 -5.9-4.5-10.1-10.3-12.6-17.6l-2.9-6.6c-1.9-4.4-4.9-9.2-9-14.6 -4.1-5.3-8.2-8.9-12.4-10.8l-2-1.4c-1.3-1-2.6-2.1-3.7-3.4 -1.1-1.3-2-2.7-2.6-4 -0.6-1.3-0.1-2.4 1.4-3.3 1.5-0.9 4.3-1.3 8.3-1.3l5.7 0.9c3.8 0.8 8.5 3 14.1 6.9 5.6 3.8 10.2 8.8 13.8 14.8 4.4 7.8 9.7 13.8 15.8 17.8 6.2 4.1 12.4 6.1 18.7 6.1 6.3 0 11.7-0.5 16.3-1.4 4.6-1 8.8-2.4 12.8-4.3 1.7-12.8 6.4-22.6 14-29.4 -10.8-1.1-20.6-2.9-29.3-5.1 -8.7-2.3-17.6-6-26.8-11.1 -9.2-5.1-16.9-11.5-23-19.1 -6.1-7.6-11.1-17.6-15-30 -3.9-12.4-5.9-26.6-5.9-42.8 0-23 7.5-42.6 22.6-58.8 -7-17.3-6.4-36.7 2-58.2 5.5-1.7 13.7-0.4 24.6 3.9 10.9 4.3 18.8 8 23.8 11 5 3 9.1 5.6 12.1 7.7 17.7-4.9 36-7.4 54.8-7.4s37.1 2.5 54.8 7.4l10.8-6.8c7.4-4.6 16.2-8.8 26.3-12.6 10.1-3.8 17.8-4.9 23.1-3.1 8.6 21.5 9.3 40.9 2.3 58.2 15 16.2 22.6 35.8 22.6 58.8 0 16.2-2 30.5-5.9 43 -3.9 12.5-8.9 22.5-15.1 30 -6.2 7.5-13.9 13.9-23.1 19 -9.2 5.1-18.2 8.9-26.8 11.1 -8.7 2.3-18.4 4-29.3 5.1 9.9 8.6 14.8 22.1 14.8 40.5v60.2c0 3.4 1.2 6.3 3.6 8.6 2.4 2.3 6.1 3 11.3 2 44.2-14.7 80.2-41.1 108.1-79.2 27.9-38.2 41.8-81.1 41.8-128.9C438.5 184.9 428.7 148.2 409.1 114.6z"/>
	</symbol>
	<symbol id="archive-icon" viewBox="0 0 60 60">
		<path d="M60,8.311c0-0.199-0.052-0.382-0.131-0.551c-0.027-0.209-0.112-0.412-0.254-0.579L53.46,0H6.54L0.384,7.182   C0.242,7.348,0.157,7.55,0.131,7.76C0.052,7.929,0,8.112,0,8.311V19h3v41h54V19h3V8.311z M7.46,2h45.08l4.286,5H3.174L7.46,2z    M55,58H5V19h50V58z M58,17h-1H3H2V9h56V17z"/>
		<path d="M42,23H18v10h24V23z M40,31H20v-6h20V31z"/>
		<path d="M45,38H15v14h30V38z M43,50H17V40h26V50z"/>
		<path d="M22,48h5c0.552,0,1-0.447,1-1s-0.448-1-1-1h-5c-0.552,0-1,0.447-1,1S21.448,48,22,48z"/>
		<path d="M27,44h11c0.552,0,1-0.447,1-1s-0.448-1-1-1H27c-0.552,0-1,0.447-1,1S26.448,44,27,44z"/>
		<path d="M22,44c0.26,0,0.52-0.11,0.71-0.29C22.89,43.52,23,43.26,23,43c0-0.261-0.11-0.521-0.29-0.71c-0.38-0.37-1.04-0.37-1.42,0   C21.11,42.479,21,42.739,21,43c0,0.27,0.11,0.52,0.29,0.71C21.48,43.89,21.73,44,22,44z"/>
		<path d="M31.29,46.29C31.11,46.479,31,46.739,31,47c0,0.26,0.11,0.52,0.29,0.71C31.48,47.89,31.74,48,32,48   c0.26,0,0.52-0.11,0.71-0.29C32.89,47.52,33,47.26,33,47c0-0.261-0.11-0.521-0.29-0.71C32.34,45.92,31.66,45.92,31.29,46.29z"/>
		<path d="M38,46h-1c-0.552,0-1,0.447-1,1s0.448,1,1,1h1c0.552,0,1-0.447,1-1S38.552,46,38,46z"/>		
	</symbol>
	<symbol id="video-icon" viewBox="0 0 511.999 511.999">
		<path d="M404.566,333.843H127.718c-5.309,0-9.613,4.304-9.613,9.613c0,5.309,4.304,9.613,9.613,9.613h276.848    c5.309,0,9.613-4.304,9.613-9.613C414.179,338.147,409.875,333.843,404.566,333.843z"/>
		<path d="M404.566,409.463H127.718c-5.309,0-9.613,4.304-9.613,9.613s4.304,9.613,9.613,9.613h276.848    c5.309,0,9.613-4.304,9.613-9.613S409.875,409.463,404.566,409.463z"/>
		<path d="M466.348,183.883H129.553l321.759-99.508c5.073-1.569,7.912-6.952,6.343-12.024l-20.28-65.58    c-0.752-2.435-2.443-4.473-4.699-5.661c-2.255-1.189-4.89-1.436-7.325-0.682L42.813,118.734    c-5.073,1.569-7.912,6.952-6.343,12.024l19.852,64.189v307.439c0,5.309,4.304,9.613,9.613,9.613h400.414    c5.309,0,9.613-4.304,9.613-9.613V193.495C475.961,188.186,471.657,183.883,466.348,183.883z M412.263,203.108l-49.417,49.417    h-62.056l49.417-49.417H412.263z M323.018,203.108L273.6,252.525h-62.056l49.417-49.417H323.018z M233.774,203.108l-49.417,49.417    H122.3l49.417-49.417H233.774z M144.529,203.108l-49.417,49.417H75.547v-49.417H144.529z M421.849,21.638l14.6,47.21l-18.69,5.78    l-61.812-32.61L421.849,21.638z M329.972,50.05l61.812,32.61l-59.285,18.335l-61.812-32.61L329.972,50.05z M244.712,76.419    l61.812,32.61l-59.287,18.334l-61.811-32.61L244.712,76.419z M159.45,102.786l61.811,32.61l-59.285,18.335l-61.81-32.61    L159.45,102.786z M57.677,134.261l16.513-5.106l61.812,32.61l-63.724,19.707L57.677,134.261z M456.735,492.773H75.547V271.751    h381.188V492.773z M456.735,252.525h-66.702l49.417-49.417h17.285V252.525z"/>
	</symbol>
	<symbol id="text-icon" viewBox="0 0 60 60">
		<path d="M45,25H20c-0.552,0-1,0.447-1,1s0.448,1,1,1h25c0.552,0,1-0.447,1-1S45.552,25,45,25z"/>
		<path d="M20,19h10c0.552,0,1-0.447,1-1s-0.448-1-1-1H20c-0.552,0-1,0.447-1,1S19.448,19,20,19z"/>
		<path d="M45,33H20c-0.552,0-1,0.447-1,1s0.448,1,1,1h25c0.552,0,1-0.447,1-1S45.552,33,45,33z"/>
		<path d="M45,41H20c-0.552,0-1,0.447-1,1s0.448,1,1,1h25c0.552,0,1-0.447,1-1S45.552,41,45,41z"/>
		<path d="M45,49H20c-0.552,0-1,0.447-1,1s0.448,1,1,1h25c0.552,0,1-0.447,1-1S45.552,49,45,49z"/>
		<path d="M49,14.586V0H6v55h5v5h43V19.586L49,14.586z M40,8.414l9,9L50.586,19H40V8.414z M8,53V2h39v10.586L39.414,5H11v48H8z    M13,58v-3V7h25v14h14v37H13z"/>		
	</symbol>
	<symbol id="other-icon" viewBox="0 0 56.598 56.598">
		<path d="M31.02,21.428c0,0-0.001,0-0.001,0.001c0,0-0.001,0.001-0.001,0.001L0.092,52.355l4.243,4.242l40.341-40.342l-4.242-4.242   L31.02,21.428z M4.334,53.77L2.92,52.355L31.725,23.55l1.414,1.414L4.334,53.77z M34.554,23.55l-1.414-1.414l7.294-7.294   l1.414,1.414L34.554,23.55z"/>
		<path d="M40.506,9c0.552,0,1-0.447,1-1V1c0-0.553-0.448-1-1-1s-1,0.447-1,1v7C39.506,8.553,39.954,9,40.506,9z"/>
		<path d="M40.506,23c-0.552,0-1,0.447-1,1v7c0,0.553,0.448,1,1,1s1-0.447,1-1v-7C41.506,23.447,41.058,23,40.506,23z"/>
		<path d="M55.506,15h-7c-0.552,0-1,0.447-1,1s0.448,1,1,1h7c0.552,0,1-0.447,1-1S56.058,15,55.506,15z"/>
		<path d="M25.506,17h7c0.552,0,1-0.447,1-1s-0.448-1-1-1h-7c-0.552,0-1,0.447-1,1S24.954,17,25.506,17z"/>
		<path d="M46.506,11c0.256,0,0.512-0.098,0.707-0.293l4.95-4.95c0.391-0.391,0.391-1.023,0-1.414s-1.023-0.391-1.414,0l-4.95,4.95   c-0.391,0.391-0.391,1.023,0,1.414C45.994,10.902,46.25,11,46.506,11z"/>
		<path d="M47.213,21.293c-0.391-0.391-1.023-0.391-1.414,0s-0.391,1.023,0,1.414l4.95,4.95c0.195,0.195,0.451,0.293,0.707,0.293   s0.512-0.098,0.707-0.293c0.391-0.391,0.391-1.023,0-1.414L47.213,21.293z"/>
		<path d="M33.799,10.707C33.994,10.902,34.25,11,34.506,11s0.512-0.098,0.707-0.293c0.391-0.391,0.391-1.023,0-1.414l-4.95-4.95   c-0.391-0.391-1.023-0.391-1.414,0s-0.391,1.023,0,1.414L33.799,10.707z"/>
	</symbol>
	<symbol id="image-icon" viewBox="0 0 512 512">
		<path d="M255.999,152.46c-72.513,0-131.508,58.995-131.508,131.509s58.995,131.508,131.508,131.508    s131.508-58.994,131.508-131.508S328.514,152.46,255.999,152.46z M255.999,394.538c-60.968,0-110.57-49.601-110.57-110.57    c0-60.969,49.601-110.571,110.57-110.571c60.969,0,110.57,49.602,110.57,110.571C366.569,344.937,316.968,394.538,255.999,394.538    z"/>
		<path d="M255.999,201.914c-45.245,0-82.055,36.809-82.055,82.055c0,45.245,36.81,82.053,82.055,82.053    s82.055-36.809,82.055-82.053S301.244,201.914,255.999,201.914z M255.999,346.186c-34.307,0-62.218-27.91-62.218-62.217    c0-34.307,27.911-62.218,62.218-62.218s62.218,27.911,62.218,62.218C318.218,318.276,290.307,346.186,255.999,346.186z"/>
		<path d="M478.939,114.334H344.133l-13.768-37.5c-4.049-11.029-14.662-18.438-26.411-18.438h-95.908    c-11.749,0-22.362,7.41-26.411,18.438l-13.769,37.499H122.06V99.637c0-11.849-9.639-21.49-21.49-21.49h-31.72    c-11.849,0-21.49,9.641-21.49,21.49v14.697H33.061C14.831,114.334,0,129.165,0,147.395v273.148    c0,18.23,14.831,33.061,33.061,33.061h445.878c18.23,0,33.061-14.831,33.061-33.061V147.395    C512,129.165,497.169,114.334,478.939,114.334z M202.324,84.431c0.877-2.389,3.176-3.994,5.721-3.994h95.908    c2.545,0,4.844,1.605,5.721,3.994l10.979,29.903H191.345L202.324,84.431z M68.3,99.637c0-0.303,0.247-0.551,0.551-0.551h31.72    c0.304,0,0.551,0.248,0.551,0.551v14.697H68.3V99.637z M22.041,197.733h32.643v172.47H22.041V197.733z M489.958,420.543    c0.001,6.077-4.943,11.02-11.019,11.02H33.061c-6.077,0-11.02-4.944-11.02-11.02v-28.299h43.663c6.086,0,11.02-4.935,11.02-11.02    V186.713c0-6.085-4.934-11.02-11.02-11.02H22.041v-28.299c0-6.077,4.944-11.02,11.02-11.02h303.296    c0.029,0,0.056,0.003,0.084,0.003c0.024,0,0.05-0.003,0.074-0.003h142.424c6.077,0,11.02,4.944,11.02,11.02v28.299h-43.663    c-6.087,0-11.02,4.935-11.02,11.02v194.511c0,6.085,4.934,11.02,11.02,11.02h43.663V420.543z M489.959,370.203h-32.643v-172.47    h32.643V370.203z"/>
		<path d="M255.999,243.425c-22.356,0-40.544,18.188-40.544,40.544c0,5.478,4.44,9.918,9.918,9.918s9.918-4.44,9.918-9.918    c0-11.418,9.289-20.707,20.707-20.707c5.478,0,9.918-4.44,9.918-9.918S261.478,243.425,255.999,243.425z"/>
	</symbol>
	<symbol id="audio-icon" viewBox="0 0 391.757 391.757">
		<path d="M281.576,36.727c-3.379,0-6.121,2.742-6.121,6.121s2.742,6.121,6.121,6.121s6.121-2.742,6.121-6.121   S284.955,36.727,281.576,36.727L281.576,36.727z M284.636,361.152H107.121c-1.689,0-3.061,1.371-3.061,3.061   s1.371,3.061,3.061,3.061h177.515c1.689,0,3.061-1.371,3.061-3.061S286.326,361.152,284.636,361.152L284.636,361.152z    M195.879,281.576c-16.876,0-30.606-13.73-30.606-30.606s13.73-30.606,30.606-30.606s30.606,13.73,30.606,30.606   S212.755,281.576,195.879,281.576L195.879,281.576z M195.879,214.242c-20.286,0-36.727,16.442-36.727,36.727   s16.442,36.727,36.727,36.727s36.727-16.442,36.727-36.727S216.164,214.242,195.879,214.242L195.879,214.242z M195.879,79.576   c6.752,0,12.242,5.491,12.242,12.242c0,6.752-5.491,12.242-12.242,12.242c-6.752,0-12.242-5.491-12.242-12.242   C183.636,85.066,189.127,79.576,195.879,79.576L195.879,79.576z M195.879,110.182c10.143,0,18.364-8.221,18.364-18.364   s-8.221-18.364-18.364-18.364s-18.364,8.221-18.364,18.364S185.736,110.182,195.879,110.182L195.879,110.182z M195.879,330.545   c-43.877,0-79.576-35.699-79.576-79.576s35.699-79.576,79.576-79.576s79.576,35.699,79.576,79.576S239.756,330.545,195.879,330.545   L195.879,330.545z M195.879,159.152c-50.708,0-91.818,41.11-91.818,91.818s41.11,91.818,91.818,91.818s91.818-41.11,91.818-91.818   S246.587,159.152,195.879,159.152L195.879,159.152z M195.879,48.97c23.628,0,42.848,19.221,42.848,42.848   s-19.221,42.848-42.848,42.848s-42.848-19.221-42.848-42.848S172.251,48.97,195.879,48.97L195.879,48.97z M195.879,146.909   c30.429,0,55.091-24.662,55.091-55.091s-24.662-55.091-55.091-55.091s-55.091,24.662-55.091,55.091S165.45,146.909,195.879,146.909   L195.879,146.909z M312.182,361.152c0,10.124-8.239,18.364-18.364,18.364H97.939c-10.124,0-18.364-8.239-18.364-18.364V30.606   c0-10.124,8.239-18.364,18.364-18.364h195.879c10.124,0,18.364,8.239,18.364,18.364V361.152z M293.818,0H97.939   C81.106,0,67.333,13.773,67.333,30.606v330.545c0,16.833,13.773,30.606,30.606,30.606h195.879   c16.833,0,30.606-13.773,30.606-30.606V30.606C324.424,13.773,310.652,0,293.818,0L293.818,0z"/>
	</symbol>
</svg>

